<svg width="128" height="128" viewBox="0 0 128 128" fill="none" xmlns="http://www.w3.org/2000/svg">
<rect width="128" height="128" fill="url(#paint0_linear_2173_23)"/>
<path d="M28.4344 74.3589H27.8832V74.9102V80.3446V80.8958H28.4344H39.5647L22.6102 97.8503L22.2204 98.2401L22.6102 98.6299L26.4523 102.472L26.8421 102.862L27.2319 102.472L44.1864 85.5175V96.6478V97.199H44.7376H50.172H50.7233V96.6478V74.9102V74.3589H50.172H28.4344Z" fill="#EDEEF0" stroke="white" stroke-width="1.10249"/>
<path d="M82.8564 25.4488H82.3052V26V64.0409V64.5921H82.8564H88.2909H88.8421V64.0409V51.0061H99.1597C100.747 51.0061 102.27 50.3754 103.392 49.2529C104.515 48.1304 105.145 46.6079 105.145 45.0204V31.4344C105.145 29.8469 104.515 28.3244 103.392 27.2019C102.27 26.0794 100.747 25.4488 99.1597 25.4488H82.8564ZM98.6084 44.4692H88.8421V31.9857H98.6084V44.4692Z" fill="#EDEEF0" stroke="white" stroke-width="1.10249"/>
<path d="M53.2964 31.4344V31.9857H53.8477H61.448V58.0552H53.8477H53.2964V58.6064V64.0409V64.5921H53.8477H75.5853H76.1365V64.0409V58.6064V58.0552H75.5853H67.9849V31.9857H75.5853H76.1365V31.4344V26V25.4488H75.5853H53.8477H53.2964V26V31.4344Z" fill="#EDEEF0" stroke="white" stroke-width="1.10249"/>
<path d="M24.2864 31.4344V31.9857H24.8376H40.1673L24.365 58.3228L24.2864 58.4538V58.6064V64.0409V64.5921H24.8376H46.5753H47.1265V64.0409V58.6064V58.0552H46.5753H31.2457L47.048 31.718L47.1265 31.5871V31.4344V26V25.4488H46.5753H24.8376H24.2864V26V31.4344Z" fill="#EDEEF0" stroke="white" stroke-width="1.10249"/>
<defs>
<linearGradient id="paint0_linear_2173_23" x1="64" y1="0" x2="64" y2="128" gradientUnits="userSpaceOnUse">
<stop stop-color="#212225"/>
<stop offset="1" stop-color="#111113"/>
</linearGradient>
</defs>
</svg>
