<svg width="442" height="116" viewBox="0 0 442 116" fill="none" xmlns="http://www.w3.org/2000/svg">
<g clip-path="url(#clip0_2168_13)">
<path d="M179.613 58.9293C179.613 44.3672 175.461 36.8912 167.157 36.4818C163.852 36.3258 160.626 36.8522 157.488 38.0706C154.983 38.9673 153.296 39.8543 152.409 40.751V75.5091C157.721 78.8427 162.439 80.3924 166.552 80.1488C175.257 79.5737 179.613 72.507 179.613 58.9293ZM189.858 59.5337C189.858 66.9317 188.123 73.0724 184.633 77.9557C180.744 83.4823 175.354 86.3284 168.463 86.4844C163.268 86.6501 157.916 85.0223 152.409 81.6108V113.201L143.5 110.024V39.903C144.963 38.1096 146.844 36.5695 149.125 35.2634C154.427 32.1736 160.87 30.5848 168.453 30.5068L168.58 30.6335C175.51 30.5458 180.851 33.392 184.604 39.1622C188.103 44.4549 189.858 51.2389 189.858 59.5337Z" fill="#B0B4BA"/>
<path d="M244.305 80.2657C244.305 90.1883 243.311 97.06 241.322 100.881C239.324 104.702 235.523 107.753 229.909 110.024C225.357 111.817 220.434 112.792 215.151 112.957L213.68 107.343C219.05 106.612 222.832 105.881 225.025 105.15C229.343 103.688 232.306 101.446 233.934 98.444C235.24 95.9975 235.884 91.3287 235.884 84.418V82.0982C229.792 84.8664 223.407 86.2407 216.73 86.2407C212.344 86.2407 208.475 84.8664 205.141 82.0982C201.398 79.0863 199.527 75.2655 199.527 70.6356V33.5577L208.436 30.5068V67.8284C208.436 71.815 209.722 74.8853 212.296 77.0394C214.869 79.1935 218.202 80.2267 222.286 80.1488C226.37 80.061 230.747 78.482 235.396 75.3922V31.8519H244.305V80.2657Z" fill="#B0B4BA"/>
<path d="M279.082 85.9975C278.02 86.0852 277.045 86.1242 276.148 86.1242C271.109 86.1242 267.181 84.9253 264.374 82.5178C261.577 80.1102 260.173 76.7865 260.173 72.5465V37.457H254.071V31.8524H260.173V16.9686L269.072 13.8008V31.8524H279.082V37.457H269.072V72.3028C269.072 75.6461 269.969 78.0146 271.762 79.3987C273.302 80.5391 275.749 81.1922 279.082 81.3579V85.9975Z" fill="#B0B4BA"/>
<path d="M333.023 85.2661H324.114V50.8784C324.114 47.3791 323.295 44.3673 321.668 41.8525C319.786 39.0064 317.174 37.5833 313.821 37.5833C309.737 37.5833 304.63 39.7374 298.499 44.0456V85.2661H289.59V3.06888L298.499 0.261719V37.7003C304.191 33.5578 310.41 31.4816 317.164 31.4816C321.882 31.4816 325.703 33.0704 328.627 36.2382C331.561 39.406 333.023 43.3536 333.023 48.0712V85.2661Z" fill="#B0B4BA"/>
<path d="M380.374 57.5258C380.374 51.9309 379.312 47.3108 377.197 43.6557C374.682 39.2012 370.773 36.8522 365.49 36.6085C355.724 37.1738 350.85 44.1723 350.85 57.5842C350.85 63.7347 351.864 68.8714 353.911 72.9944C356.523 78.2481 360.441 80.8408 365.666 80.7531C375.471 80.6751 380.374 72.9359 380.374 57.5258ZM390.131 57.5842C390.131 65.5476 388.094 72.1756 384.029 77.4683C379.556 83.3945 373.376 86.3674 365.49 86.3674C357.673 86.3674 351.581 83.3945 347.185 77.4683C343.199 72.1756 341.21 65.5476 341.21 57.5842C341.21 50.0985 343.365 43.8019 347.673 38.6749C352.225 33.236 358.209 30.5068 365.607 30.5068C373.005 30.5068 379.029 33.236 383.669 38.6749C387.977 43.8019 390.131 50.0985 390.131 57.5842Z" fill="#B0B4BA"/>
<path d="M441.206 85.266H432.297V48.9288C432.297 44.9423 431.098 41.833 428.7 39.5911C426.302 37.359 423.105 36.2771 419.119 36.3648C414.889 36.4428 410.863 37.8269 407.042 40.5073V85.266H398.133V39.4059C403.26 35.6728 407.978 33.236 412.286 32.0956C416.351 31.0332 419.938 30.5068 423.027 30.5068C425.142 30.5068 427.131 30.7115 429.002 31.1209C432.502 31.9299 435.348 33.431 437.541 35.6338C439.987 38.0706 441.206 40.9947 441.206 44.4159V85.266Z" fill="#B0B4BA"/>
<path d="M55.5101 3.39838C50.9264 3.41968 46.5492 3.8106 42.6976 4.49213C31.3514 6.49663 29.2913 10.6922 29.2913 18.4296V28.6484H56.1038V32.0546H29.2913H19.2288C11.4364 32.0546 4.61308 36.7383 2.47884 45.6484C0.0170239 55.8613 -0.0921713 62.2344 2.47884 72.8984C4.38477 80.8362 8.93639 86.4921 16.7288 86.4921H25.9476V74.2421C25.9476 65.3922 33.6047 57.5859 42.6976 57.5859H69.4788C76.9338 57.5859 82.8851 51.4477 82.8851 43.9609V18.4296C82.8851 11.1633 76.7551 5.70485 69.4788 4.49213C64.8729 3.7254 60.0937 3.37708 55.5101 3.39838ZM41.0101 11.6171C43.7796 11.6171 46.0413 13.9158 46.0413 16.7421C46.0413 19.5585 43.7796 21.8359 41.0101 21.8359C38.2306 21.8359 35.9788 19.5585 35.9788 16.7421C35.9788 13.9158 38.2306 11.6171 41.0101 11.6171Z" fill="url(#paint0_linear_2168_13)"/>
<path d="M86.229 32.0547V43.9609C86.229 53.1917 78.4031 60.9609 69.479 60.9609H42.6978C35.3619 60.9609 29.2915 67.2394 29.2915 74.5859V100.117C29.2915 107.384 35.6101 111.658 42.6978 113.742C51.1851 116.238 59.324 116.689 69.479 113.742C76.2292 111.788 82.8853 107.855 82.8853 100.117V89.8984H56.104V86.4922H82.8853H96.2915C104.084 86.4922 106.988 81.0568 109.698 72.8984C112.497 64.4996 112.378 56.4227 109.698 45.6484C107.772 37.891 104.094 32.0547 96.2915 32.0547H86.229ZM71.1665 96.7109C73.946 96.7109 76.1978 98.9884 76.1978 101.805C76.1978 104.631 73.946 106.93 71.1665 106.93C68.397 106.93 66.1353 104.631 66.1353 101.805C66.1353 98.9884 68.397 96.7109 71.1665 96.7109Z" fill="url(#paint1_linear_2168_13)"/>
</g>
<defs>
<linearGradient id="paint0_linear_2168_13" x1="0.591309" y1="3.39746" x2="62.418" y2="56.0824" gradientUnits="userSpaceOnUse">
<stop stop-color="#5A9FD4"/>
<stop offset="1" stop-color="#306998"/>
</linearGradient>
<linearGradient id="paint1_linear_2168_13" x1="70.5222" y1="100.946" x2="48.3411" y2="69.8633" gradientUnits="userSpaceOnUse">
<stop stop-color="#FFD43B"/>
<stop offset="1" stop-color="#FFE873"/>
</linearGradient>
<clipPath id="clip0_2168_13">
<rect width="442" height="116" fill="white"/>
</clipPath>
</defs>
</svg>
